<mxfile host="app.diagrams.net" modified="2022-08-10T06:44:02.142Z" agent="5.0 (Macintosh; Intel Mac OS X 10_15_7) AppleWebKit/537.36 (KHTML, like Gecko) Chrome/103.0.0.0 Safari/537.36" etag="mQ5hrww6vgWTueYkCdX6" version="20.2.3" type="github">
  <diagram id="AwD2zQUoliNuN3SYE1WY" name="第 1 页">
    <mxGraphModel dx="1234" dy="794" grid="1" gridSize="10" guides="1" tooltips="1" connect="1" arrows="1" fold="1" page="1" pageScale="1" pageWidth="827" pageHeight="1169" math="0" shadow="0">
      <root>
        <mxCell id="0" />
        <mxCell id="1" parent="0" />
        <mxCell id="ADrakRZXXJYxRlloGVSP-1" value="&lt;b&gt;MMS - MediaManager&lt;/b&gt;" style="rounded=1;whiteSpace=wrap;html=1;fontFamily=Times New Roman;fillColor=#d0cee2;strokeColor=#56517e;sketch=0;shadow=1;verticalAlign=bottom;" vertex="1" parent="1">
          <mxGeometry x="1241" y="650" width="330" height="150" as="geometry" />
        </mxCell>
        <mxCell id="ADrakRZXXJYxRlloGVSP-3" value="&lt;b&gt;MMS - VideoDispatcher&lt;/b&gt;" style="rounded=1;whiteSpace=wrap;html=1;fontFamily=Times New Roman;fillColor=#b1ddf0;strokeColor=#10739e;sketch=0;shadow=1;verticalAlign=bottom;" vertex="1" parent="1">
          <mxGeometry x="910" y="650" width="300" height="150" as="geometry" />
        </mxCell>
        <mxCell id="ADrakRZXXJYxRlloGVSP-7" value="&lt;b&gt;MMS - VideoApi&lt;/b&gt;" style="rounded=1;whiteSpace=wrap;html=1;fontFamily=Times New Roman;fillColor=#b0e3e6;strokeColor=#0e8088;sketch=0;shadow=1;verticalAlign=bottom;" vertex="1" parent="1">
          <mxGeometry x="683.5" y="650" width="158.5" height="150" as="geometry" />
        </mxCell>
        <mxCell id="ADrakRZXXJYxRlloGVSP-60" style="edgeStyle=orthogonalEdgeStyle;rounded=0;orthogonalLoop=1;jettySize=auto;html=1;exitX=0.5;exitY=1;exitDx=0;exitDy=0;exitPerimeter=0;shape=flexArrow;fillColor=#f5f5f5;strokeColor=#666666;" edge="1" parent="1" source="ADrakRZXXJYxRlloGVSP-10" target="ADrakRZXXJYxRlloGVSP-21">
          <mxGeometry relative="1" as="geometry">
            <Array as="points">
              <mxPoint x="1087" y="490" />
              <mxPoint x="763" y="490" />
            </Array>
          </mxGeometry>
        </mxCell>
        <mxCell id="ADrakRZXXJYxRlloGVSP-61" style="edgeStyle=orthogonalEdgeStyle;rounded=0;orthogonalLoop=1;jettySize=auto;html=1;exitX=0.5;exitY=1;exitDx=0;exitDy=0;exitPerimeter=0;entryX=0.5;entryY=0;entryDx=0;entryDy=0;entryPerimeter=0;shape=flexArrow;fillColor=#f5f5f5;strokeColor=#666666;" edge="1" parent="1" source="ADrakRZXXJYxRlloGVSP-10" target="ADrakRZXXJYxRlloGVSP-15">
          <mxGeometry relative="1" as="geometry">
            <Array as="points">
              <mxPoint x="1087" y="490" />
              <mxPoint x="980" y="490" />
            </Array>
          </mxGeometry>
        </mxCell>
        <mxCell id="ADrakRZXXJYxRlloGVSP-63" style="edgeStyle=orthogonalEdgeStyle;rounded=0;orthogonalLoop=1;jettySize=auto;html=1;exitX=0.5;exitY=1;exitDx=0;exitDy=0;exitPerimeter=0;shape=flexArrow;fillColor=#f5f5f5;strokeColor=#666666;" edge="1" parent="1" source="ADrakRZXXJYxRlloGVSP-10" target="ADrakRZXXJYxRlloGVSP-28">
          <mxGeometry relative="1" as="geometry">
            <Array as="points">
              <mxPoint x="1087" y="490" />
              <mxPoint x="1144" y="490" />
            </Array>
          </mxGeometry>
        </mxCell>
        <mxCell id="ADrakRZXXJYxRlloGVSP-64" style="edgeStyle=orthogonalEdgeStyle;rounded=0;orthogonalLoop=1;jettySize=auto;html=1;exitX=0.5;exitY=1;exitDx=0;exitDy=0;exitPerimeter=0;shape=flexArrow;fillColor=#f5f5f5;strokeColor=#666666;" edge="1" parent="1" source="ADrakRZXXJYxRlloGVSP-10" target="ADrakRZXXJYxRlloGVSP-20">
          <mxGeometry relative="1" as="geometry">
            <Array as="points">
              <mxPoint x="1087" y="490" />
              <mxPoint x="1318" y="490" />
            </Array>
          </mxGeometry>
        </mxCell>
        <mxCell id="ADrakRZXXJYxRlloGVSP-65" style="edgeStyle=orthogonalEdgeStyle;rounded=0;orthogonalLoop=1;jettySize=auto;html=1;exitX=0.5;exitY=1;exitDx=0;exitDy=0;exitPerimeter=0;shape=flexArrow;fillColor=#f5f5f5;strokeColor=#666666;" edge="1" parent="1" source="ADrakRZXXJYxRlloGVSP-10" target="ADrakRZXXJYxRlloGVSP-19">
          <mxGeometry relative="1" as="geometry">
            <Array as="points">
              <mxPoint x="1087" y="490" />
              <mxPoint x="1495" y="490" />
            </Array>
          </mxGeometry>
        </mxCell>
        <mxCell id="ADrakRZXXJYxRlloGVSP-10" value="Server SDK" style="outlineConnect=0;dashed=0;verticalLabelPosition=bottom;verticalAlign=top;align=center;html=1;shape=mxgraph.aws3.android;fillColor=#4090D7;gradientColor=none;fontFamily=Times New Roman;labelBackgroundColor=default;" vertex="1" parent="1">
          <mxGeometry x="1050" y="320" width="73.5" height="84" as="geometry" />
        </mxCell>
        <mxCell id="ADrakRZXXJYxRlloGVSP-15" value="LocalCache" style="shape=cylinder3;whiteSpace=wrap;html=1;boundedLbl=1;backgroundOutline=1;size=15;labelBackgroundColor=none;labelBorderColor=none;fontFamily=Times New Roman;fillColor=#60a917;strokeColor=#2D7600;sketch=0;shadow=1;dashed=1;fontColor=#ffffff;" vertex="1" parent="1">
          <mxGeometry x="950" y="685" width="60" height="80" as="geometry" />
        </mxCell>
        <mxCell id="ADrakRZXXJYxRlloGVSP-19" value="MySQL" style="shape=cylinder3;whiteSpace=wrap;html=1;boundedLbl=1;backgroundOutline=1;size=15;labelBackgroundColor=none;labelBorderColor=none;fontFamily=Times New Roman;fillColor=#1ba1e2;strokeColor=#006EAF;sketch=0;shadow=1;dashed=1;fontColor=#ffffff;" vertex="1" parent="1">
          <mxGeometry x="1451" y="685" width="87.5" height="90" as="geometry" />
        </mxCell>
        <mxCell id="ADrakRZXXJYxRlloGVSP-20" value="Codis 8121" style="shape=cylinder3;whiteSpace=wrap;html=1;boundedLbl=1;backgroundOutline=1;size=15;labelBackgroundColor=none;labelBorderColor=none;fontFamily=Times New Roman;fillColor=#008a00;strokeColor=#005700;sketch=0;shadow=1;dashed=1;fontColor=#ffffff;" vertex="1" parent="1">
          <mxGeometry x="1274" y="685" width="87.5" height="90" as="geometry" />
        </mxCell>
        <mxCell id="ADrakRZXXJYxRlloGVSP-21" value="LocalCache" style="shape=cylinder3;whiteSpace=wrap;html=1;boundedLbl=1;backgroundOutline=1;size=15;labelBackgroundColor=none;labelBorderColor=none;fontFamily=Times New Roman;fillColor=#60a917;strokeColor=#2D7600;sketch=0;shadow=1;dashed=1;fontColor=#ffffff;" vertex="1" parent="1">
          <mxGeometry x="732.75" y="685" width="60" height="80" as="geometry" />
        </mxCell>
        <mxCell id="ADrakRZXXJYxRlloGVSP-28" value="Codis 8122" style="shape=cylinder3;whiteSpace=wrap;html=1;boundedLbl=1;backgroundOutline=1;size=15;labelBackgroundColor=none;labelBorderColor=none;fontFamily=Times New Roman;fillColor=#008a00;strokeColor=#005700;sketch=0;shadow=1;dashed=1;fontColor=#ffffff;" vertex="1" parent="1">
          <mxGeometry x="1100" y="680" width="87.5" height="90" as="geometry" />
        </mxCell>
        <mxCell id="ADrakRZXXJYxRlloGVSP-82" value=":" style="text;html=1;strokeColor=none;fillColor=none;align=left;verticalAlign=middle;whiteSpace=wrap;rounded=0;fontStyle=1" vertex="1" parent="1">
          <mxGeometry x="770" y="530" width="60" height="30" as="geometry" />
        </mxCell>
        <mxCell id="ADrakRZXXJYxRlloGVSP-83" value="：" style="text;html=1;strokeColor=none;fillColor=none;align=left;verticalAlign=middle;whiteSpace=wrap;rounded=0;fontStyle=1" vertex="1" parent="1">
          <mxGeometry x="990" y="530" width="60" height="30" as="geometry" />
        </mxCell>
        <mxCell id="ADrakRZXXJYxRlloGVSP-84" value="：" style="text;html=1;strokeColor=none;fillColor=none;align=left;verticalAlign=middle;whiteSpace=wrap;rounded=0;fontStyle=1" vertex="1" parent="1">
          <mxGeometry x="1150" y="530" width="60" height="30" as="geometry" />
        </mxCell>
        <mxCell id="ADrakRZXXJYxRlloGVSP-85" value="：" style="text;html=1;strokeColor=none;fillColor=none;align=left;verticalAlign=middle;whiteSpace=wrap;rounded=0;fontStyle=1" vertex="1" parent="1">
          <mxGeometry x="1330" y="530" width="60" height="30" as="geometry" />
        </mxCell>
        <mxCell id="ADrakRZXXJYxRlloGVSP-86" value="：" style="text;html=1;strokeColor=none;fillColor=none;align=left;verticalAlign=middle;whiteSpace=wrap;rounded=0;fontStyle=1" vertex="1" parent="1">
          <mxGeometry x="1500" y="530" width="60" height="30" as="geometry" />
        </mxCell>
      </root>
    </mxGraphModel>
  </diagram>
</mxfile>
